<?xml version="1.0" encoding="UTF-8" standalone="no"?>
<!-- Created with Inkscape (http://www.inkscape.org/) -->

<svg
   xmlns:osb="http://www.openswatchbook.org/uri/2009/osb"
   xmlns:dc="http://purl.org/dc/elements/1.1/"
   xmlns:cc="http://creativecommons.org/ns#"
   xmlns:rdf="http://www.w3.org/1999/02/22-rdf-syntax-ns#"
   xmlns:svg="http://www.w3.org/2000/svg"
   xmlns="http://www.w3.org/2000/svg"
   xmlns:sodipodi="http://sodipodi.sourceforge.net/DTD/sodipodi-0.dtd"
   xmlns:inkscape="http://www.inkscape.org/namespaces/inkscape"
   width="744.09448819"
   height="1052.3622047"
   id="svg2"
   version="1.1"
   inkscape:version="0.48.2 r9819"
   sodipodi:docname="plankton.svg">
  <defs
     id="defs4">
    <inkscape:path-effect
       fuse_tolerance="0"
       vertical_pattern="false"
       prop_units="false"
       tang_offset="0"
       normal_offset="0"
       spacing="0"
       scale_y_rel="false"
       prop_scale="1"
       copytype="single_stretched"
       pattern="m 65.594682,133.5399 10,5 0,-10 z"
       is_visible="true"
       id="path-effect3332"
       effect="skeletal" />
    <inkscape:path-effect
       fuse_tolerance="0"
       vertical_pattern="false"
       prop_units="false"
       tang_offset="0"
       normal_offset="0"
       spacing="0"
       scale_y_rel="false"
       prop_scale="1"
       copytype="single_stretched"
       pattern="m -89.403032,326.37514 c 0,-2.76 2.24,-5 5,-5 2.76,0 5,2.24 5,5 0,2.76 -2.24,5 -5,5 -2.76,0 -5,-2.24 -5,-5 z"
       is_visible="true"
       id="path-effect3327"
       effect="skeletal" />
    <inkscape:path-effect
       effect="skeletal"
       id="path-effect5833"
       is_visible="true"
       pattern="m -86.767422,328.911 c 0,-2.76 2.24,-5 5,-5 2.76,0 5,2.24 5,5 0,2.76 -2.24,5 -5,5 -2.76,0 -5,-2.24 -5,-5 z"
       copytype="single_stretched"
       prop_scale="1"
       scale_y_rel="false"
       spacing="0"
       normal_offset="0"
       tang_offset="0"
       prop_units="false"
       vertical_pattern="false"
       fuse_tolerance="0" />
    <linearGradient
       id="linearGradient5746"
       osb:paint="solid">
      <stop
         style="stop-color:#00ff00;stop-opacity:1;"
         offset="0"
         id="stop5748" />
    </linearGradient>
    <linearGradient
       id="linearGradient5740"
       osb:paint="solid">
      <stop
         style="stop-color:#00ff00;stop-opacity:1;"
         offset="0"
         id="stop5742" />
    </linearGradient>
    <linearGradient
       id="linearGradient4290"
       osb:paint="solid">
      <stop
         style="stop-color:#b3b3b3;stop-opacity:1;"
         offset="0"
         id="stop4292" />
    </linearGradient>
    <inkscape:path-effect
       effect="skeletal"
       id="path-effect3455"
       is_visible="true"
       pattern="m 68.230292,136.07576 10,5 0,-10 z"
       copytype="single_stretched"
       prop_scale="1"
       scale_y_rel="false"
       spacing="0"
       normal_offset="0"
       tang_offset="0"
       prop_units="false"
       vertical_pattern="false"
       fuse_tolerance="0" />
    <inkscape:path-effect
       effect="skeletal"
       id="path-effect3431"
       is_visible="true"
       pattern="M 0,0 1,0"
       copytype="single_stretched"
       prop_scale="1"
       scale_y_rel="false"
       spacing="0"
       normal_offset="0"
       tang_offset="0"
       prop_units="false"
       vertical_pattern="false"
       fuse_tolerance="0" />
    <inkscape:perspective
       sodipodi:type="inkscape:persp3d"
       inkscape:vp_x="0 : 526.18109 : 1"
       inkscape:vp_y="0 : 1000 : 0"
       inkscape:vp_z="744.09448 : 526.18109 : 1"
       inkscape:persp3d-origin="372.04724 : 350.78739 : 1"
       id="perspective10" />
    <inkscape:path-effect
       effect="skeletal"
       id="path-effect3455-7"
       is_visible="true"
       pattern="m 68.230292,136.07576 10,5 0,-10 z"
       copytype="single_stretched"
       prop_scale="1"
       scale_y_rel="false"
       spacing="0"
       normal_offset="0"
       tang_offset="0"
       prop_units="false"
       vertical_pattern="false"
       fuse_tolerance="0" />
    <inkscape:path-effect
       effect="skeletal"
       id="path-effect5833-8"
       is_visible="true"
       pattern="m -86.767422,328.911 c 0,-2.76 2.24,-5 5,-5 2.76,0 5,2.24 5,5 0,2.76 -2.24,5 -5,5 -2.76,0 -5,-2.24 -5,-5 z"
       copytype="single_stretched"
       prop_scale="1"
       scale_y_rel="false"
       spacing="0"
       normal_offset="0"
       tang_offset="0"
       prop_units="false"
       vertical_pattern="false"
       fuse_tolerance="0" />
  </defs>
  <sodipodi:namedview
     id="base"
     pagecolor="#ffffff"
     bordercolor="#666666"
     borderopacity="1.0"
     inkscape:pageopacity="0.0"
     inkscape:pageshadow="2"
     inkscape:zoom="0.29214729"
     inkscape:cx="142.11422"
     inkscape:cy="601.76289"
     inkscape:document-units="px"
     inkscape:current-layer="layer1"
     showgrid="false"
     inkscape:window-width="1024"
     inkscape:window-height="551"
     inkscape:window-x="0"
     inkscape:window-y="25"
     inkscape:window-maximized="1"
     showguides="true"
     inkscape:guide-bbox="true"
     inkscape:snap-global="false" />
  <metadata
     id="metadata7">
    <rdf:RDF>
      <cc:Work
         rdf:about="">
        <dc:format>image/svg+xml</dc:format>
        <dc:type
           rdf:resource="http://purl.org/dc/dcmitype/StillImage" />
        <dc:title />
      </cc:Work>
    </rdf:RDF>
  </metadata>
  <g
     inkscape:label="Layer 1"
     inkscape:groupmode="layer"
     id="layer1">
    <g
       id="g3368"
       transform="matrix(5.2849162,0,0,5.2849162,-1534.245,-2400.6625)">
      <path
         inkscape:connector-curvature="0"
         id="path5789-5"
         d="m 325.21875,461.875 c 10.79106,8.03886 22.14218,18.4878 22.79136,32.70958 1.13415,9.01159 2.97384,17.85385 5.20864,26.63417 -9.87041,5.81265 -9.09498,19.18047 -9.125,29.1875 0.26192,9.85523 1.26024,19.67339 1.46875,29.53125 -2.45877,2.08017 -5.98067,1.85564 -6.96875,-1.625 -2.45435,-4.31872 -1.52125,-11.97778 -7.5,-13.125 0.80738,-2.61038 -0.69977,-8.2007 -4.15625,-5.375 -1.8066,3.58634 -2.41139,8.51651 -1.03125,12.34375 0.97187,2.15073 4.36528,1.59379 3.75,4.5625 1.11162,7.65067 8.70441,14.95425 16.03125,13.5625 -0.48925,11.35744 -0.1142,22.91171 3.0625,33.78125 0.4919,8.35819 -0.42741,17.34085 2.53125,25.21875 3.91754,3.12577 4.98359,-3.86947 4.84375,-6.5 0.72014,-4.70114 -0.1377,-11.26265 1.25,-14.71875 2.37161,1.25692 6.74435,-1.09528 7.58893,0.77729 1.15542,6.49494 0.49436,13.61943 3.37982,19.66021 4.99612,1.98882 4.09201,-5.71576 4.375,-8.65625 0.14174,-6.16989 -0.38209,-12.28042 2.0625,-17.9375 1.67286,-10.05646 0.89066,-20.70815 1.34375,-30.59375 9.11661,4.17594 17.434,-5.47716 18.28125,-13.9375 0.72121,-1.73588 4.46193,-2.27299 4.21875,-5.25 -0.54267,-3.51476 0.84454,-9.34779 -3.21875,-11.0625 -4.94771,-0.11312 -0.26165,7.1016 -4.90625,7.125 -4.98559,3.61804 -2.46245,12.28196 -8.09375,15.21875 -3.25047,-0.65428 -7.7651,-1.89012 -5.90248,-6.15167 0.53381,-15.79274 2.22981,-32.03443 -1.06627,-47.56708 -1.36584,-3.28288 -4.00741,-5.96369 -7.09375,-7.65625 3.57095,-11.88556 4.29964,-24.54535 7.28125,-36.40625 3.94279,-11.79934 15.51646,-18.11382 23.33521,-26.92808 1.63844,-2.37464 -5.63695,-0.0106 -7.61646,1.30308 -13.37496,6.9732 -24.81153,20.02853 -24.78945,35.7369 -1.04762,8.11867 -2.25207,16.21592 -3.3668,24.3256 -2.2991,-0.90392 -6.17188,1.00544 -5.09375,-3.25 -2.39264,-11.43186 -1.83467,-23.61846 -5.71875,-34.5625 -5.01197,-10.94996 -14.95822,-19.6234 -26.07604,-23.93737 -6.66921,-1.72774 -3.79066,-0.50339 -1.08021,3.56237 z"
         style="fill:#000000;stroke:none" />
      <g
         id="g3197"
         transform="matrix(0.20052632,0,0,0.20052632,286.43074,448.20007)">
        <path
           id="path3199"
           d="m 363.98496,366.38959 c -25.09976,0.59215 -49.21494,15.34233 -58.908,51.7869 -10.5913,39.8219 -9.39725,82.50262 -2.63862,182.03303 1.34846,23.86307 2.11859,44.7934 2.54325,63.48585 -14.87912,5.27468 -24.98915,13.49734 -35.57369,9.41002 -16.33783,-6.309 -26.74764,-36.86689 -30.42361,-58.43114 -1.94024,-11.38194 -8.64748,-21.45774 -20.69569,-20.34599 -9.81999,0.90615 -2.8737,-32.65213 -7.75691,-31.66345 -5.85268,1.18496 -5.52294,25.23684 -6.99393,35.35116 -0.6619,4.55109 -3.7854,22.26708 19.45585,22.57133 1.17715,31.5903 18.13815,65.21462 46.28713,75.78882 12.49768,4.69476 22.23828,1.36187 36.11413,-3.27444 0.54421,84.52871 -4.85502,116.21978 15.45024,176.24714 -1.73033,80.71839 15.58778,236.41478 20.56852,10.14121 18.82152,18.39383 58.62189,3.59234 58.62189,3.59234 0,0 21.14609,239.76643 21.23612,5.27724 14.86383,-18.11501 15.4994,-68.73854 15.35487,-188.55011 20.28767,6.05545 31.34571,12.56732 46.85935,6.73961 28.14899,-10.5742 45.10998,-44.16673 46.28713,-75.75702 23.24126,-0.30425 20.14954,-18.05203 19.48765,-22.60312 -1.471,-10.11432 -1.17304,-34.1662 -7.02573,-35.35116 -4.88321,-0.98868 2.06308,32.60139 -7.75691,31.69524 -12.04821,-1.11175 -18.75545,8.96404 -20.69568,20.34599 -3.67598,21.56424 -14.054,52.09035 -30.39183,58.39935 -12.79873,4.94234 -24.88882,-8.13412 -45.58773,-12.2076 10.98959,-214.42526 4.27191,-172.47723 0.47686,-246.75871 -3.63633,-32.93999 -39.89869,-58.73395 -74.29466,-57.92249 z"
           style="fill:#00aa44;stroke:none"
           inkscape:connector-curvature="0" />
        <path
           style="fill:#ffdd55;stroke:none"
           d="m 419.32034,519.54451 c 0,44.50414 -28.15748,80.58188 -49.64761,80.58188 -21.49013,0 -47.1023,-36.07774 -47.1023,-80.58188 0,-44.50417 25.61217,-80.58191 47.1023,-80.58191 21.49013,0 49.64761,36.07774 49.64761,80.58191 z"
           id="path3201"
           inkscape:connector-curvature="0"
           sodipodi:nodetypes="sssss" />
        <path
           d="m 48.57143,479.50504 c 0,52.86154 -29.421288,95.71428 -65.714287,95.71428 -36.292998,0 -65.714286,-42.85274 -65.714286,-95.71428 0,-52.86155 29.421288,-95.71429 65.714286,-95.71429 36.292999,0 65.714287,42.85274 65.714287,95.71429 z"
           sodipodi:ry="95.714287"
           sodipodi:rx="65.714287"
           sodipodi:cy="479.50504"
           sodipodi:cx="-17.142857"
           id="path3203"
           style="fill:#ff2a2a;stroke:none"
           sodipodi:type="arc"
           transform="matrix(0.24114988,0,0,0.37724244,373.36302,326.73386)" />
        <path
           transform="matrix(0.10789928,0,0,0.14761534,372.34824,423.72277)"
           sodipodi:type="arc"
           style="fill:#ececec;stroke:none"
           id="path3205"
           sodipodi:cx="-17.142857"
           sodipodi:cy="479.50504"
           sodipodi:rx="65.714287"
           sodipodi:ry="95.714287"
           d="m 48.57143,479.50504 c 0,52.86154 -29.421288,95.71428 -65.714287,95.71428 -36.292998,0 -65.714286,-42.85274 -65.714286,-95.71428 0,-52.86155 29.421288,-95.71429 65.714286,-95.71429 36.292999,0 65.714287,42.85274 65.714287,95.71429 z" />
        <path
           style="fill:#000000;fill-rule:evenodd;stroke:none"
           d="m 404.70293,634.97679 c -0.44061,0.0605 -0.79735,0.40411 -1.09912,0.73342 -0.30482,0.32122 -0.63447,0.64896 -1.01783,0.68567 -0.17164,0.0242 -0.35809,-0.005 -0.55985,-0.0245 -0.32241,-0.035 -0.64441,-0.0851 -0.96861,-0.13783 -0.86314,-0.14051 -1.72356,-0.30457 -2.58937,-0.46312 0,0 0,0 -10e-6,0 -0.86139,-0.15797 -1.72795,-0.31749 -2.60894,-0.44224 -0.32761,-0.0467 -0.6651,-0.0896 -1.01514,-0.11138 0,0 0,0 0,0 -0.18363,-0.0235 -0.44555,-0.0348 -0.77675,0.048 -0.6149,0.21535 -1.03748,0.6113 -1.33009,0.93916 -0.30816,0.26762 -0.54277,0.50404 -0.71356,0.46166 -1.13127,0.18442 -2.39891,-0.39555 -3.96442,-0.58897 0,-10e-6 0,-10e-6 0,-10e-6 -0.45093,-0.10797 -1.25977,-0.4713 -2.50248,-0.24054 -1.43584,0.56587 -1.94621,1.57171 -2.13416,1.42489 0.16578,0.13386 -0.43657,-0.4535 -1.96167,-0.32769 -1.84411,0.30234 -3.17182,1.16309 -4.12199,1.13369 -0.70265,0.0942 -2.04547,-0.76691 -4.32579,-0.5598 -10e-6,0 -10e-6,10e-6 -2e-5,10e-6 -1.08585,0.30948 -1.78315,0.80786 -2.10162,1.24751 -0.36993,0.27858 -0.43372,0.43952 -0.25373,0.23415 0.45103,-0.009 0.46281,-0.152 0.0481,-0.17728 -0.26187,-0.1905 -0.9907,-0.3099 -2.17377,-0.10783 -0.60232,0.15519 -1.30416,0.37102 -2.07105,0.74241 -0.27633,-0.0741 -0.86516,0.42417 -1.57758,1.62761 0,2e-5 0,3e-5 0,5e-5 -0.17644,1.37541 0.0765,2.28924 0.67745,2.66857 0.3893,0.33517 0.62471,0.49687 0.66875,0.51906 0,10e-6 0,2e-5 0,3e-5 0.0416,0.61412 -0.16363,-0.005 -0.80316,-1.84396 1.18142,-1.81114 1.48117,-2.43974 1.16432,-1.69271 -0.99648,0.26723 -2.24541,0.24319 -3.70985,0.37425 -1.60785,0.54389 -3.22461,1.16539 -4.8503,1.86449 -0.16406,0.88731 -0.3295,1.7793 -0.49631,2.67598 -0.32889,0.1554 -0.7453,-0.46596 -1.37852,-1.86979 0,-10e-6 1e-5,-3e-5 1e-5,-4e-5 0.53758,-1.93934 0.69423,-2.68123 0.79888,-2.14516 0,0 0,1e-5 0,1e-5 -0.16526,0.10411 -0.60183,0.17693 -1.24096,0.38042 1e-5,0 1e-5,0 2e-5,0 1.06152,-0.0378 1.28552,-0.22473 0.67054,-0.22744 -0.12677,-0.46641 -1.38288,-0.47202 -3.65225,0.38566 -1.09224,1.10567 -1.54318,2.1652 -1.35708,3.09545 0,1e-5 0,2e-5 10e-6,2e-5 0.10807,0.71293 0.21775,1.12061 0.27673,1.22261 0,0 0,0 0,0 0.0401,0.22639 0.0397,0.1498 -0.0535,-0.23022 0,-10e-6 0,-2e-5 0,-3e-5 -0.17566,-0.66439 0.18409,-1.44705 1.075,-2.43111 2.01348,-0.48197 2.5879,-0.84835 1.83472,-0.59246 0,0 0,0 0,0 0.0787,-0.52669 -1.28974,-0.58834 -3.99383,0.32177 -1e-5,0 -2e-5,0 -2e-5,10e-6 -1.16141,1.17858 -1.64062,2.30236 -1.4419,3.2882 0.11509,0.75104 0.22862,1.1756 0.28826,1.27326 0.0394,0.23073 0.0351,0.13724 -0.065,-0.2809 0,-1e-5 0,-2e-5 0,-3e-5 -0.18827,-0.72001 0.19975,-1.5669 1.15981,-2.6238 10e-6,-1e-5 2e-5,-2e-5 3e-5,-3e-5 1.90061,-0.54437 2.51793,-0.87708 1.96804,-0.59569 0,0 0,0 0,0 -0.0516,-0.26982 -1.10111,-0.44144 -3.15,-0.18156 -2.75093,1.31693 -3.26129,2.32278 -2.13416,1.42488 1.39486,-0.0697 1.75534,-0.25828 1.07997,-0.23237 -0.0815,-0.54648 -1.53833,-0.51705 -4.25443,0.49077 -1.31219,1.3375 -1.85304,2.60134 -1.62679,3.70836 0.1304,0.83411 0.25229,1.29547 0.31336,1.38366 0.0379,0.24018 0.0253,0.10986 -0.0901,-0.39138 -0.21579,-0.84128 0.23386,-1.82821 1.3447,-3.04391 2.20692,-0.64738 2.96184,-1.00413 2.38085,-0.66777 -0.0102,-0.28944 -1.15325,-0.45993 -3.43062,-0.17818 -10e-6,0 -2e-5,0 -2e-5,0 -3.00825,1.46387 -3.51862,2.46972 -2.13415,1.42486 0,0 0,0 0,0 1.62336,-0.0916 2.07738,-0.2813 1.36059,-0.23573 -0.0504,-0.60146 -1.64478,-0.548 -4.66717,0.56285 0,0 -1e-5,0 -2e-5,10e-6 -2.01843,3.15127 -2.46226,5.05425 -1.60111,5.38801 -0.3225,0.76274 -0.0428,-0.0427 0.49419,-2.59915 -0.43859,0.61319 -0.8374,1.16843 -1.22376,1.63899 -0.39089,0.37934 -0.28656,0.35058 0.23296,-0.21107 -0.34368,-0.5049 0.9685,-0.7002 3.95727,-0.64489 9e-5,6e-5 1.7e-4,1.2e-4 2.6e-4,1.8e-4 2.39783,1.71663 3.36269,2.76005 2.86817,3.17158 0.0853,0.82829 0.15074,1.01734 0.11575,0.56491 0,-10e-6 0,-10e-6 0,-10e-6 0.0362,-0.23911 0.0524,-0.6979 0.0128,-1.37868 0.17984,-0.53765 -0.28333,-1.66262 -1.48102,-3.3024 -1e-5,-10e-6 -1e-5,-10e-6 -2e-5,-2e-5 -2.34772,-1.51409 -4.08884,-1.91549 -5.06616,-1.28738 -1.48165,0.49922 -2.40307,1.01499 -2.78549,1.37818 -1.62296,1.66495 -2.29087,3.21748 -2.00797,4.57445 0,10e-6 1e-5,2e-5 1e-5,3e-5 0.16192,1.00542 0.30107,1.54269 0.36511,1.6114 0,0 0,0 0,0 0.035,0.25967 0.005,0.0535 -0.14187,-0.61903 -0.27248,-1.09115 0.30423,-2.36681 1.72587,-3.91011 -0.1914,-0.59464 1.19157,0.0249 4.79294,1.19514 -1.46704,0.37434 -2.94663,0.75457 -4.43877,1.14068 -1.50082,1.06479 -3.03455,2.13833 -4.60118,3.22064 l 9.98306,-0.38644 c -1.61823,-0.25053 -3.20355,-0.50982 -4.75597,-0.77787 -1.2303,0.88287 -2.44806,1.75984 -3.65326,2.63094 4.57108,2.04362 7.48808,1.96333 8.3433,0.58911 1.64608,-1.71049 2.30385,-3.2894 2.00302,-4.65897 -0.18168,-1.01325 -0.33799,-1.54329 -0.41903,-1.60588 0,0 0,0 0,0 -0.052,-0.25355 -0.0393,-0.0401 0.0879,0.62456 1e-5,10e-6 1e-5,2e-5 1e-5,3e-5 0.25455,1.07855 -0.33229,2.32782 -1.7308,3.82558 0.38493,-0.20837 0.26102,-0.26922 -0.29931,-0.0282 -0.55213,0.50895 -1.78409,0.0987 -3.81969,-1.10304 -0.90792,-1.34981 -1.28289,-2.04108 -1.06026,-2.17102 0.0104,-0.2047 0.006,-0.18308 0.0219,0.0561 0,0 -10e-6,0 -10e-6,0 -0.0506,-0.0872 -0.034,0.47345 0.12716,1.65932 -0.47592,0.49916 0.52133,1.64497 3.00412,3.39 9e-5,6e-5 1.7e-4,1.2e-4 2.6e-4,1.9e-4 3.09072,0.0894 4.50758,-0.18243 4.24906,-0.75294 1.0413,-0.96361 1.50009,-1.57106 1.49104,-1.7284 0.49115,-0.76281 0.90596,-1.48505 1.27867,-2.14976 0.87514,-3.08909 0.86642,-4.58749 0.35833,-4.42773 0.688,-0.22885 0.0811,0.94556 -1.46525,3.74521 -2.47004,0.69941 -3.28333,1.02181 -2.67457,0.62025 -0.001,0.26259 1.21555,0.38972 3.54899,0.0639 3.05625,-1.59605 3.38344,-2.60208 2.04693,-1.68942 -1.56728,0.0476 -1.94751,0.19393 -1.2422,0.1215 0.0781,0.53626 1.61418,0.44846 4.37347,-0.61037 1.33528,-1.38288 1.86601,-2.67306 1.62188,-3.79276 -0.15015,-0.84199 -0.28921,-1.29615 -0.36729,-1.37823 -0.0549,-0.23407 -0.0595,-0.0965 0.0362,0.39681 10e-6,10e-6 10e-6,2e-5 10e-6,3e-5 0.19789,0.8286 -0.2619,1.78917 -1.34964,2.95948 -2.16371,0.59638 -2.83941,0.89476 -2.26178,0.54819 0,0 0,0 0,0 0.0402,0.24293 1.16345,0.37119 3.2684,0.0673 2.79889,-1.44913 3.12608,-2.45516 2.04692,-1.68944 -1.33881,0.0257 -1.6255,0.17093 -0.96159,0.11812 0,0 0,0 0,0 0.10923,0.48131 1.50768,0.41754 3.96067,-0.53827 1.18453,-1.2241 1.65362,-2.37425 1.437,-3.37269 0,-10e-6 -1e-5,-10e-6 -1e-5,-2e-5 -0.13485,-0.75888 -0.26554,-1.17622 -0.34217,-1.26774 -0.0564,-0.2246 -0.0693,-0.12388 0.0111,0.28642 0.17038,0.70741 -0.22777,1.52793 -1.16473,2.53933 -2.12199,0.47652 -2.66895,0.79247 -1.90335,0.50034 10e-6,0 10e-6,0 10e-6,0 -0.0662,0.49044 1.32966,0.50165 3.92527,-0.41392 1.11535,-1.15124 1.55616,-2.23715 1.35215,-3.17997 0,-10e-6 0,-2e-5 0,-3e-5 -0.12784,-0.72076 -0.2547,-1.1212 -0.33067,-1.21706 -0.057,-0.22026 -0.0738,-0.13642 -4.1e-4,0.23578 0,0 0,10e-6 0,10e-6 0.15776,0.65182 -0.21211,1.4081 -1.0799,2.34659 -1.71701,0.44622 -2.19199,0.70957 -1.65965,0.44307 0.10054,0.2143 1.08737,0.3442 2.85901,0.0722 0,0 0,0 10e-6,0 0.63411,-0.21633 1.48964,-0.56928 2.45114,-1.19167 1e-5,10e-6 1e-5,10e-6 1e-5,10e-6 0.50191,0.27992 1.16217,-0.7969 1.64305,-3.2055 0,-2e-5 0,-3e-5 0,-5e-5 -0.66747,-1.68733 -1.356,-2.49935 -1.94085,-2.47056 -0.34262,0.83223 -0.68387,1.65977 -1.02373,2.48263 1.40652,1.04126 2.82197,2.0049 4.24634,2.89095 1.44637,-0.22452 3.16226,-0.41764 4.97472,-0.99249 -0.0111,0.65538 0.74587,-0.0304 1.95919,-2.15912 -1e-5,-3e-5 -2e-5,-6e-5 -2e-5,-9e-5 -0.61818,-2.05158 -1.08325,-2.79306 -1.22107,-2.2948 -0.21771,-0.14686 -0.25875,-0.13669 -0.0979,-0.0134 0.40447,0.19716 0.51321,0.83504 0.42612,1.95785 -0.5428,0.7239 -0.61905,0.96044 -0.44948,0.6416 0.29655,-0.21237 0.75076,-0.39108 1.30056,-0.61577 -0.50953,-0.02 -0.50747,0.0816 -0.0833,0.0707 0,0 0,0 0,0 0.27137,0.15431 1.01405,0.23279 2.13863,0.001 1.02208,-0.48303 1.57561,-1.02439 1.79667,-1.4068 0.26864,-0.21699 0.24973,-0.36978 0.029,-0.22583 0.48491,-0.32202 1.94436,0.40161 4.03633,0.1544 1.97228,-0.38639 3.19255,-1.37253 4.24015,-1.62351 -0.13191,-0.14075 0.70649,0.33974 2.21939,0.0294 1.4838,-0.69806 1.811,-1.70408 2.04692,-1.68943 0.099,-0.21165 0.72188,0.10434 1.6786,0.11656 0,0 0,0 10e-6,0 1.23508,0.0458 2.76823,0.46904 4.39767,0.12522 0.69435,-0.20793 1.13814,-0.62267 1.41708,-1.0117 0.29839,-0.33313 0.49313,-0.63948 0.72031,-0.7018 0.0432,-0.0407 0.18701,-0.0329 0.39759,-0.0517 0,0 0,0 10e-6,0 0.30279,-0.014 0.61693,-0.007 0.93964,0.004 0.86179,0.0301 1.7308,0.097 2.60461,0.16329 0,0 0,0 0,0 0.87434,0.0664 1.75273,0.13937 2.63391,0.18882 0,0 0,0 0,0 0.3302,0.0186 0.66345,0.0348 0.99832,0.0358 0.19556,0.002 0.41233,0.008 0.63151,-0.043 0.48905,-0.13021 0.80683,-0.51206 1.0727,-0.87148 0.26892,-0.35132 0.55961,-0.71726 0.99141,-0.82373 z"
           id="path3207"
           inkscape:path-effect="#path-effect3455-7"
           inkscape:original-d="m 404.70293,634.97679 c -0.93491,0.17889 -1.15562,1.37827 -2.09053,1.55715 -0.95616,0.18296 -7.4319,-1.02092 -8.36213,-0.7142 -0.88142,0.29064 -1.15561,1.37826 -2.09052,1.55716 -1.32218,0.25299 -2.78737,-0.23806 -4.18105,-0.3571 -0.69686,-0.0595 -1.46727,-0.38406 -2.09054,-0.17855 -0.88145,0.29064 -1.20909,1.26651 -2.09054,1.55716 -0.62327,0.2055 -1.42944,-0.30505 -2.09053,-0.17856 -1.47823,0.28285 -2.6694,1.19394 -4.18107,1.3786 -1.35207,0.16518 -2.8589,-0.6101 -4.18106,-0.3571 -0.93492,0.17889 -1.20909,1.26652 -2.09052,1.55715 -0.6233,0.20552 -1.46726,-0.38405 -2.09054,-0.17853 -6.3752,2.10206 3.82347,1.70254 -6.2716,2.93575 -9.51668,-0.8128 -0.11959,-0.82844 -6.27158,1.20005 -0.62329,0.2055 -1.59781,-0.54558 -2.09053,-0.17855 -0.49275,0.36703 0.49272,1.36867 0,1.7357 -0.49275,0.36703 -1.5978,-0.54557 -2.09053,-0.17855 -0.49274,0.36703 0.49273,1.36868 0,1.7357 -0.49274,0.36702 -1.46726,-0.38406 -2.09052,-0.17855 -0.88146,0.29063 -1.2091,1.26652 -2.09054,1.55716 -0.62327,0.2055 -1.59779,-0.54558 -2.09054,-0.17856 -0.49273,0.36702 0.49275,1.36868 0,1.7357 -0.49273,0.36703 -1.46726,-0.38405 -2.09052,-0.17854 -0.88146,0.29063 -1.20908,1.26652 -2.09055,1.55714 -0.62326,0.20552 -1.59778,-0.54556 -2.09051,-0.17853 -0.49276,0.36701 0.31162,1.24483 0,1.73569 -4.35015,6.85203 0.14431,-1.84319 -4.18108,1.3786 -0.49274,0.36703 0.49273,1.36868 0,1.73571 -2.78737,2.07619 -2.09054,-3.07139 -2.09054,1.55714"
           inkscape:connector-curvature="0"
           sodipodi:nodetypes="ccsscsccccsscccsssscccccccscc" />
        <path
           style="fill:none;stroke:none"
           d="m 437.76908,651.15215 c 0.0684,20.86788 -0.0976,16.47967 -0.72664,30.51897"
           id="path3209"
           inkscape:connector-curvature="0"
           sodipodi:nodetypes="cc" />
        <path
           sodipodi:nodetypes="ccsssccsssccc"
           inkscape:connector-curvature="0"
           id="path3211"
           d="m 324.96447,413.70862 -2.66847,2.76758 c 0,0 2.71802,5.6219 -0.0279,9.28923 -1.64256,2.1938 -5.62477,-0.68759 -8.28334,0.93165 -2.21892,1.35145 0.97245,5.25663 1.33421,8.52197 0.25252,2.27925 -10.26965,-4.18006 -9.50639,-3.20601 8.92465,47.9749 119.84736,45.46209 127.19675,0 0.76326,-0.97405 -9.75892,5.48526 -9.50641,3.20601 0.36177,-3.26534 3.55315,-7.17052 1.33425,-8.52197 -2.65859,-1.61924 -6.64083,1.26215 -8.28338,-0.93165 -2.7458,-3.66733 -0.0279,-9.28923 -0.0279,-9.28923 l -2.66848,-2.76758 c -28.73729,20.47978 -64.20053,22.70025 -88.89318,0 z"
           style="fill:#000000;fill-opacity:1;fill-rule:evenodd;stroke:none" />
        <path
           inkscape:connector-curvature="0"
           inkscape:original-d="m 364.42209,678.32581 c 2.61993,-0.24568 5.21168,-0.53835 7.85982,-0.73701 1.78849,-0.13416 8.77438,0.19699 9.82476,0 0.8285,-0.15537 1.13646,-0.58162 1.96494,-0.73699 1.17168,-0.21974 3.00363,0.34743 3.92991,0 4.06556,-1.52487 -6.2127,0.0596 1.96495,-1.47399 0.58584,-0.10986 1.37911,0.10986 1.96495,0 0.82851,-0.15537 1.13645,-0.58162 1.96496,-0.73698 0.58584,-0.10988 1.50181,0.17371 1.96495,0 0.46314,-0.17372 -0.46314,-0.56329 0,-0.737 0.46314,-0.17372 1.5018,0.17371 1.96495,0 0.46314,-0.17372 -0.2929,-0.51727 0,-0.73699 0.41425,-0.31075 1.55071,-0.42625 1.96496,-0.737 0.299,-0.22429 0,-1.87907 0,-2.21099 0,-0.24566 0.46313,-0.56326 0,-0.73699 -0.46317,-0.1737 -1.50182,-0.1737 -1.96496,0 -0.46315,0.17373 0,0.49133 0,0.73699"
           inkscape:path-effect="#path-effect5833-8"
           id="path3213"
           d="m 364.42209,678.32581 c -0.0681,-0.72624 0.61875,-1.48647 1.91468,-2.244 1.29592,-0.75752 3.20067,-1.52484 5.66935,-2.16941 0,0 0,0 0,0 0.90062,-0.18968 1.7504,-0.30039 2.45763,-0.39918 0.99752,-0.13429 2.03551,-0.24206 3.09469,-0.33541 0.9405,-0.0822 1.88865,-0.14998 2.82855,-0.22403 0.78209,-0.0827 1.09681,-0.0545 0.83237,-0.0964 -0.89753,0.30347 -0.40505,-0.18202 1.94629,-0.83635 1.77673,-0.27446 2.99431,-0.2377 3.54071,-0.12658 0.5464,0.11112 0.42118,0.29621 -0.46035,0.27693 0.27189,-0.1736 0.35966,-0.204 0.24546,-0.10958 -0.10346,0.0856 -0.37228,0.27307 -0.81474,0.54575 -0.73105,-0.48339 -1.20812,1.18752 -1.5014,5.00928 1.75724,2.77867 2.76844,3.88561 3.08873,3.30805 0.87794,0.19063 1.14142,0.27543 0.82506,0.18366 -0.11539,-0.009 -0.31006,-0.009 -0.58099,-0.0118 -0.10447,0.005 -0.4468,0.006 -1.01848,-0.026 1.38979,-0.3706 0.5156,-2.27608 -2.57072,-5.76135 0,0 0,0 0,0 0.02,-0.0458 0.0541,-0.0937 0.0867,-0.13738 0.0852,-0.11421 0.1718,-0.22214 0.2561,-0.32956 1e-5,-10e-6 1e-5,-10e-6 1e-5,-10e-6 1.12586,-1.43462 1.93875,-2.69276 2.43081,-3.85124 0.83817,-0.14729 1.63291,-0.26143 2.38389,-0.35942 2.4761,-0.22629 3.04656,0.0664 1.98854,0.12573 -0.87844,0.398 -0.14892,-0.0607 1.99826,-0.5591 2.90412,-0.31517 3.13334,0.20453 1.2867,0.41293 -10e-6,10e-6 -2e-5,3e-5 -3e-5,4e-5 -2.35616,3.53923 -2.94075,5.55216 -1.76722,6.35668 -1.36147,-1.08752 -0.74724,-3.52184 1.80979,-6.98029 1.99773,-0.38914 2.92044,-0.32553 2.91569,-0.0986 0.66228,-0.058 0.32244,0.16013 -0.84614,0.37742 -1.95003,2.26385 -2.46926,4.01626 -1.69134,5.4686 -1.06379,0.0903 -0.8118,-1.89061 0.81839,-5.55063 0,-10e-6 10e-6,-2e-5 10e-6,-3e-5 1.39362,-0.75495 2.12438,-0.91337 2.28608,-0.7826 0.56827,-0.18658 0.50529,0.0459 -0.058,0.39627 -1.1781,1.67609 -1.52559,2.25095 -1.07878,2.00599 0.0628,0.0607 0.10838,-0.0221 0.1611,-0.20716 0.0912,-0.11935 0.11785,-0.65642 0.22007,-1.37819 0.40336,-1.60053 0.61091,-1.94125 0.53374,-1.41064 -0.0344,1.65366 0.43932,2.5028 1.30947,2.88252 0.0135,-0.13857 -0.0752,-0.31887 -0.20091,-0.48859 -0.12576,-0.16972 -0.2901,-0.32908 -0.464,-0.46306 0.23398,-0.19596 0.3085,-0.43175 0.32013,-0.66112 0.0116,-0.22937 -0.0402,-0.45214 -0.0985,-0.63529 -0.0755,-0.0252 -0.10917,0.0676 -0.14543,0.17733 -0.0363,0.10972 -0.074,0.23713 -0.12531,0.33631 -0.10271,0.19836 -0.26062,0.26254 -0.42246,0.26254 -0.16184,0 -0.3109,-0.0128 -0.4614,0.0507 -0.0753,0.0317 -0.15331,0.0778 -0.24588,0.0922 -0.0926,0.0145 -0.20029,-0.001 -0.33328,-0.15768 -0.10859,-0.2976 -0.16153,-0.65306 -0.0919,-1.00895 0.0697,-0.35589 0.26215,-0.71276 0.66085,-0.9705 0.27789,-0.30343 0.68559,-0.605 1.2334,-0.80565 0.54781,-0.20065 1.2373,-0.30024 2.03161,-0.146 1.14296,0.48206 1.81632,1.62701 1.65682,3.56556 -0.19081,0.78938 -0.21697,0.68228 0.18639,-0.6197 0.10222,2e-5 0.29059,0.22408 0.44432,0.91352 0.0863,0.24954 0.1599,0.61619 0.18913,1.13628 0.42656,0.0322 0.0764,0.94471 -1.33106,2.79282 -1.10649,0.75783 -1.89086,1.12733 -2.02299,1.13327 -0.49671,0.31175 -0.49443,0.27571 0.32112,-0.0456 0,-10e-6 10e-6,-2e-5 10e-6,-3e-5 1.39791,-3.48577 1.83983,-5.11249 0.94606,-4.77914 0.94936,1.69735 0.41679,3.80006 -1.81901,6.17109 -1.77405,0.44437 -2.80438,0.51276 -2.8111,0.37741 -0.64867,0.15246 -0.41787,0.0546 0.95075,-0.0986 2.26491,-3.34889 2.96999,-5.40057 1.80979,-6.2433 1.37175,1.04561 0.88556,3.4432 -1.76722,7.09369 -1e-5,10e-6 -2e-5,3e-5 -3e-5,4e-5 -3.04525,0.65797 -4.21833,0.47883 -2.6432,0.41293 0.80087,-0.24599 0.35859,0.2521 -1.93166,0.91486 -2.32528,0.29701 -3.10291,0.10551 -1.94136,0.12573 -0.73414,0.18052 -1.45322,0.35005 -2.14723,0.52278 -0.12172,-1.03028 0.0622,-2.1902 0.59143,-3.40772 0,0 0,0 0,-1e-5 0.0396,-0.0912 0.0806,-0.18312 0.12676,-0.27012 0.0176,-0.0333 0.0342,-0.0624 0.0655,-0.094 0,0 0,0 0,0 -3.03596,-3.42225 -3.80699,-5.34824 -2.33658,-5.71342 -0.16145,-0.004 -0.0903,-0.0216 0.21939,-0.022 0.2677,-0.0101 0.61445,-0.0173 1.04238,-0.009 0.0995,-0.0781 0.79074,0.006 2.0652,0.33199 0.41619,-0.54493 1.5405,0.60582 3.32485,3.48226 -0.26485,3.92424 -0.8372,5.68883 -1.64936,5.2745 -0.68779,0.4816 -1.23899,0.82378 -1.6402,1.03969 -0.44286,0.23833 -0.70067,0.32171 -0.76164,0.27296 -4.28444,0.90717 -5.80856,0.22585 -4.77946,0.15035 0.94925,-0.39139 0.27018,0.0798 -1.98359,0.63763 -1.41545,0.17397 -2.26964,0.11649 -2.62111,0.0321 -1.0643,-0.0771 -2.05862,-0.18637 -2.98914,-0.30539 -1.06947,-0.13528 -2.06774,-0.287 -2.9998,-0.44033 -0.78757,-0.11353 -1.37101,-0.25341 -1.82623,-0.34138 0,0 0,0 0,0 -2.369,-0.28166 -4.38913,-0.62233 -5.81423,-1.10828 -1.4251,-0.48596 -2.25328,-1.10487 -2.32138,-1.83111 z"
           style="fill:#000000;fill-rule:evenodd;stroke:none" />
        <g
           transform="matrix(6.492437,0,0,6.1388846,-1023.0854,-2141.4234)"
           id="g3215">
          <path
             sodipodi:nodetypes="cscccc"
             style="fill:#006d44;fill-opacity:1;stroke:none"
             d="m 206.27752,385.47552 c 1.71526,13.76619 3.65678,19.64667 4.76875,25.55261 0.27179,1.44358 0.49403,-1.01253 0.65129,0.54963 0.5097,-0.68224 -1.32666,-11.0498 -3.32661,-27.99582 -0.9709,-11.95569 -12.23585,-21.26126 -20.04615,-24.91788 7.79176,6.61198 16.76192,13.69782 17.95272,26.81146 z"
             id="path3217"
             inkscape:connector-curvature="0" />
          <path
             inkscape:connector-curvature="0"
             id="path3219"
             d="m 223.23265,385.47552 c -1.71526,13.76619 -3.65678,19.64667 -4.76875,25.55261 -0.27179,1.44358 -0.49403,-1.01253 -0.65129,0.54963 -0.5097,-0.68224 1.32666,-11.0498 3.32661,-27.99582 0.9709,-11.95569 12.23585,-21.26126 20.04615,-24.91788 -7.79176,6.61198 -16.76192,13.69782 -17.95272,26.81146 z"
             style="fill:#006d44;fill-opacity:1;stroke:none"
             sodipodi:nodetypes="cscccc" />
        </g>
        <g
           id="g3221"
           transform="matrix(6.492437,0,0,6.1388846,-1023.0854,-2141.4234)">
          <path
             inkscape:connector-curvature="0"
             id="path3223"
             d="m 206.27752,385.47552 c 1.71526,13.76619 3.65678,19.64667 4.76875,25.55261 0.27179,1.44358 0.49403,-1.01253 0.65129,0.54963 0.5097,-0.68224 -1.32666,-11.0498 -3.32661,-27.99582 -0.9709,-11.95569 -12.23585,-21.26126 -20.04615,-24.91788 7.79176,6.61198 16.76192,13.69782 17.95272,26.81146 z"
             style="fill:#006d44;fill-opacity:1;stroke:none"
             sodipodi:nodetypes="cscccc" />
          <path
             sodipodi:nodetypes="cscccc"
             style="fill:#006d44;fill-opacity:1;stroke:none"
             d="m 223.23265,385.47552 c -1.71526,13.76619 -3.65678,19.64667 -4.76875,25.55261 -0.27179,1.44358 -0.49403,-1.01253 -0.65129,0.54963 -0.5097,-0.68224 1.32666,-11.0498 3.32661,-27.99582 0.9709,-11.95569 12.23585,-21.26126 20.04615,-24.91788 -7.79176,6.61198 -16.76192,13.69782 -17.95272,26.81146 z"
             id="path3225"
             inkscape:connector-curvature="0" />
        </g>
        <g
           transform="matrix(6.492437,0,0,6.1388846,-1023.0854,-2141.4234)"
           id="g3227">
          <path
             sodipodi:nodetypes="cscccc"
             style="fill:#006d44;fill-opacity:1;stroke:none"
             d="m 206.27752,385.47552 c 1.71526,13.76619 3.65678,19.64667 4.76875,25.55261 0.27179,1.44358 0.49403,-1.01253 0.65129,0.54963 0.5097,-0.68224 -1.32666,-11.0498 -3.32661,-27.99582 -0.9709,-11.95569 -12.23585,-21.26126 -20.04615,-24.91788 7.79176,6.61198 16.76192,13.69782 17.95272,26.81146 z"
             id="path3229"
             inkscape:connector-curvature="0" />
          <path
             inkscape:connector-curvature="0"
             id="path3231"
             d="m 223.23265,385.47552 c -1.71526,13.76619 -3.65678,19.64667 -4.76875,25.55261 -0.27179,1.44358 -0.49403,-1.01253 -0.65129,0.54963 -0.5097,-0.68224 1.32666,-11.0498 3.32661,-27.99582 0.9709,-11.95569 12.23585,-21.26126 20.04615,-24.91788 -7.79176,6.61198 -16.76192,13.69782 -17.95272,26.81146 z"
             style="fill:#006d44;fill-opacity:1;stroke:none"
             sodipodi:nodetypes="cscccc" />
        </g>
      </g>
    </g>
  </g>
</svg>
